# ProBuilder 4.2.3
# https://unity3d.com/unity/features/worldbuilding/probuilder
# 25/04/2020 20:36:57

mtllib ./Cone.mtl
o Cone

g Cone
v 0 0 0
v 0.06949973 0 0.4388041
v 1.42 4 0
v 1.42 0 0
v 0.2711959 0 0.834655
v 0.5853449 0 1.148804
v 0.9811959 0 1.3505
v 1.42 0 1.42
v 1.858804 0 1.3505
v 2.254655 0 1.148804
v 2.568804 0 0.8346549
v 2.7705 0 0.4388042
v 2.84 0 -1.241403E-07
v 2.7705 0 -0.4388041
v 2.568804 0 -0.8346549
v 2.254655 0 -1.148804
v 1.858804 0 -1.3505
v 1.42 0 -1.42
v 0.9811957 0 -1.3505
v 0.5853452 0 -1.148804
v 0.2711959 0 -0.8346551
v 0.06949973 0 -0.4388041

vt 0 8.939453E-10
vt 0.4442739 0
vt 0.2221369 4.238756
vt 0.06949973 0.4388041
vt 1.42 0
vt 0.2711959 0.834655
vt 0.5853449 1.148804
vt 0.9811959 1.3505
vt 1.42 1.42
vt 1.858804 1.3505
vt 2.254655 1.148804
vt 2.568804 0.8346549
vt 2.7705 0.4388042
vt 2.84 -1.241403E-07
vt 2.7705 -0.4388041
vt 2.568804 -0.8346549
vt 2.254655 -1.148804
vt 1.858804 -1.3505
vt 1.42 -1.42
vt 0.9811957 -1.3505
vt 0.5853452 -1.148804
vt 0.2711959 -0.8346551
vt 0.06949973 -0.4388041

vn -0.9320549 0.3308795 0.147623
vn 0 -1 0
vn -0.8408188 0.3308795 0.4284186
vn -0.6672776 0.3308795 0.6672775
vn -0.4284186 0.3308795 0.8408188
vn -0.1476229 0.3308795 0.9320549
vn 0.147623 0.3308794 0.9320549
vn 0.4284187 0.3308794 0.8408188
vn 0.6672774 0.3308794 0.6672779
vn 0.8408189 0.3308795 0.4284184
vn 0.9320549 0.3308794 0.1476229
vn 0.9320549 0.3308794 -0.147623
vn 0.8408189 0.3308794 -0.4284184
vn 0.6672776 0.3308795 -0.6672775
vn 0.4284187 0.3308794 -0.8408188
vn 0.1476232 0.3308794 -0.9320548
vn -0.1476232 0.3308794 -0.9320548
vn -0.4284184 0.3308795 -0.8408189
vn -0.6672775 0.3308794 -0.6672778
vn -0.8408189 0.3308795 -0.4284186
vn -0.9320549 0.3308795 -0.147623

usemtl ProBuilderDefault
f 1/1/1 2/2/1 3/3/1
f 4/5/2 2/4/2 1/1/2
f 2/1/3 5/2/3 3/3/3
f 4/5/2 5/6/2 2/4/2
f 5/1/4 6/2/4 3/3/4
f 4/5/2 6/7/2 5/6/2
f 6/1/5 7/2/5 3/3/5
f 4/5/2 7/8/2 6/7/2
f 7/1/6 8/2/6 3/3/6
f 4/5/2 8/9/2 7/8/2
f 8/1/7 9/2/7 3/3/7
f 4/5/2 9/10/2 8/9/2
f 9/1/8 10/2/8 3/3/8
f 4/5/2 10/11/2 9/10/2
f 10/1/9 11/2/9 3/3/9
f 4/5/2 11/12/2 10/11/2
f 11/1/10 12/2/10 3/3/10
f 4/5/2 12/13/2 11/12/2
f 12/1/11 13/2/11 3/3/11
f 4/5/2 13/14/2 12/13/2
f 13/1/12 14/2/12 3/3/12
f 4/5/2 14/15/2 13/14/2
f 14/1/13 15/2/13 3/3/13
f 4/5/2 15/16/2 14/15/2
f 15/1/14 16/2/14 3/3/14
f 4/5/2 16/17/2 15/16/2
f 16/1/15 17/2/15 3/3/15
f 4/5/2 17/18/2 16/17/2
f 17/1/16 18/2/16 3/3/16
f 4/5/2 18/19/2 17/18/2
f 18/1/17 19/2/17 3/3/17
f 4/5/2 19/20/2 18/19/2
f 19/1/18 20/2/18 3/3/18
f 4/5/2 20/21/2 19/20/2
f 20/1/19 21/2/19 3/3/19
f 4/5/2 21/22/2 20/21/2
f 21/1/20 22/2/20 3/3/20
f 4/5/2 22/23/2 21/22/2
f 22/1/21 1/2/21 3/3/21
f 4/5/2 1/1/2 22/23/2

